<?xml version="1.0" encoding="utf-8"?>
<!-- Generator: Adobe Illustrator 16.0.0, SVG Export Plug-In . SVG Version: 6.00 Build 0)  -->
<!DOCTYPE svg PUBLIC "-//W3C//DTD SVG 1.1//EN" "http://www.w3.org/Graphics/SVG/1.1/DTD/svg11.dtd">
<svg version="1.1" id="Layer_1" xmlns="http://www.w3.org/2000/svg" xmlns:xlink="http://www.w3.org/1999/xlink" x="0px" y="0px"
	 width="612px" height="792px" viewBox="0 0 612 792" enable-background="new 0 0 612 792" xml:space="preserve">
<g>
	<polyline fill="#DCC224" points="366.524,219.713 372.766,101.272 349.534,216.281 	"/>
	<path fill="#231F20" d="M366.375,219.706l2.519-59.252l2.668-59.245l2.387,0.302l-5.532,28.808l-1.411,7.196l-1.425,7.193
		l-2.964,14.364c-2.041,9.563-4.084,19.125-6.253,28.662l-3.257,14.305c-1.144,4.757-2.232,9.524-3.425,14.271l-0.295-0.06
		c0.744-4.837,1.591-9.654,2.383-14.481l2.552-14.447c1.702-9.631,3.531-19.237,5.362-28.842l2.844-14.388l1.479-7.183l1.492-7.18
		l6.084-28.696l2.387,0.302l-3.573,59.197l-3.723,59.189L366.375,219.706z"/>
</g>
<polyline fill="#FFFFFF" points="363.485,184.013 369.667,131.673 359,182.34 "/>
<g>
	<polyline fill="#DCC224" points="407.829,283.604 522.796,254.444 406.07,266.36 	"/>
	<path fill="#231F20" d="M407.792,283.458l57.336-15.164l57.371-15.02l0.419,2.369l-29.152,3.259l-7.291,0.787l-7.293,0.771
		l-14.597,1.43c-9.738,0.886-19.477,1.771-29.228,2.527l-14.627,1.131c-4.882,0.318-9.758,0.691-14.645,0.96l-0.031-0.299
		c4.841-0.724,9.691-1.344,14.537-2.019l14.554-1.848c9.703-1.229,19.42-2.331,29.136-3.431l14.584-1.549l7.299-0.718l7.299-0.703
		l29.21-2.699l0.42,2.369l-57.596,14.14l-57.631,13.996L407.792,283.458z"/>
</g>
<g>
	<polyline fill="#DCC224" points="416.212,256.598 531.179,227.438 414.453,239.354 	"/>
	<path fill="#231F20" d="M416.175,256.452l57.336-15.164l57.371-15.02l0.419,2.369l-29.152,3.259l-7.291,0.787l-7.293,0.771
		l-14.597,1.43c-9.738,0.886-19.477,1.771-29.228,2.527l-14.627,1.131c-4.882,0.318-9.758,0.691-14.645,0.96l-0.031-0.299
		c4.841-0.724,9.691-1.344,14.537-2.019l14.554-1.848c9.703-1.229,19.42-2.331,29.136-3.431l14.584-1.549l7.299-0.718l7.299-0.703
		l29.21-2.699l0.42,2.369l-57.596,14.14l-57.631,13.996L416.175,256.452z"/>
</g>
<g>
	<polyline fill="#DCC224" points="425.262,231.765 501.224,140.676 413.716,218.837 	"/>
	<path fill="#231F20" d="M425.146,231.669l37.519-45.93l37.632-45.835l1.73,1.672l-21.689,19.75l-5.441,4.916l-5.451,4.906
		l-10.979,9.725c-7.364,6.433-14.729,12.865-22.18,19.201l-11.179,9.501c-3.766,3.123-7.494,6.288-11.293,9.374l-0.199-0.224
		c3.493-3.428,7.057-6.776,10.584-10.167l10.698-10.039c7.134-6.691,14.354-13.285,21.574-19.879l10.898-9.815l5.487-4.865
		l5.497-4.854l22.064-19.33l1.73,1.672l-38.33,45.254l-38.443,45.159L425.146,231.669z"/>
</g>
<g>
	<polyline fill="#DCC224" points="424.646,262.406 513.651,184.013 415.214,247.863 	"/>
	<path fill="#231F20" d="M424.546,262.293l44.105-39.648l44.203-39.537l1.453,1.917l-24.456,16.199l-6.13,4.025l-6.137,4.014
		l-12.338,7.931c-8.262,5.23-16.524,10.46-24.857,15.581l-12.5,7.679c-4.199,2.51-8.368,5.067-12.594,7.535l-0.164-0.252
		c3.978-2.853,8.012-5.617,12.016-8.427l12.108-8.283c8.074-5.521,16.218-10.933,24.362-16.344l12.271-8.032l6.168-3.968
		l6.175-3.956l24.763-15.726l1.453,1.917l-44.803,38.855l-44.9,38.745L424.546,262.293z"/>
</g>
<g opacity="0.8">
	<path fill="#F6921E" d="M178.505,288.046c0,0-53.766-12.018-60.043-56.281c0,0-128.703,71.602-20.404,173.146
		c0,0,42-32.544,81.428-14.97"/>
	<g>
		<path fill="#231F20" d="M178.505,285.546c-25.68-5.806-51.782-23.866-58.834-50.175c-0.238-0.887-0.971-6.244-1.513-5.933
			c-0.691,0.396-1.373,0.809-2.051,1.225c-2.843,1.741-5.608,3.607-8.326,5.536c-9.365,6.643-18.067,14.249-25.838,22.703
			c-19.612,21.336-30.201,47.988-26.6,77.086c2.597,20.976,14.034,39.761,27.478,55.583c4.358,5.129,9.075,9.946,13.929,14.604
			c1.861,1.787,2.023,0.671,3.994-0.681c6.221-4.266,12.936-7.812,19.858-10.789c18.696-8.038,39.825-10.453,58.885-2.264
			c-0.572-0.246,0.636-4.727,0-5c-21.777-9.356-45.527-4.688-66.06,5.6c-5.175,2.593-10.217,5.583-14.887,9.009
			c-2.365,1.735-20.12-20.785-22.393-23.79c-11.538-15.252-22.058-35.521-21.378-55.25c0.534-15.5,6.375-30.301,14.739-43.195
			c11.672-17.997,28.58-33.116,46.819-44.288c0.605-0.371,1.215-0.735,1.831-1.089c0.366-0.211,1.551,6.075,1.827,7.103
			c2.43,9.067,7.501,17.188,13.85,24.017c10.029,10.788,23.64,18.129,37.453,22.863c2.366,0.811,4.776,1.573,7.218,2.125
			C178.183,290.474,178.899,285.636,178.505,285.546L178.505,285.546z"/>
	</g>
</g>
<g>
	<g>
		<path fill="#231F20" d="M178.505,285.546c-25.68-5.806-51.782-23.866-58.834-50.175c-0.238-0.887-0.971-6.244-1.513-5.933
			c-0.691,0.396-1.373,0.809-2.051,1.225c-2.843,1.741-5.608,3.607-8.326,5.536c-9.365,6.643-18.067,14.249-25.838,22.703
			c-19.612,21.336-30.201,47.988-26.6,77.086c2.597,20.976,14.034,39.761,27.478,55.583c4.358,5.13,9.075,9.946,13.929,14.604
			c1.861,1.787,2.023,0.672,3.994-0.68c6.221-4.266,12.936-7.813,19.858-10.789c18.696-8.039,39.825-10.454,58.885-2.265
			c-0.572-0.246,0.636-4.727,0-5c-21.777-9.356-45.527-4.688-66.06,5.6c-5.175,2.593-10.217,5.583-14.887,9.011
			c-2.365,1.734-20.12-20.787-22.393-23.791c-11.538-15.252-22.058-35.521-21.378-55.25c0.534-15.5,6.375-30.301,14.739-43.195
			c11.672-17.997,28.58-33.116,46.819-44.288c0.605-0.371,1.215-0.735,1.831-1.089c0.366-0.211,1.551,6.075,1.827,7.103
			c2.43,9.067,7.501,17.188,13.85,24.017c10.029,10.788,23.64,18.129,37.453,22.863c2.366,0.811,4.776,1.573,7.218,2.125
			C178.183,290.473,178.899,285.635,178.505,285.546L178.505,285.546z"/>
	</g>
</g>
<g>
	
		<radialGradient id="SVGID_1_" cx="304.5908" cy="457.6543" r="280.8539" fx="292.4688" fy="575.2925" gradientTransform="matrix(0.9096 0 0 1.4559 45.4091 -129.3903)" gradientUnits="userSpaceOnUse">
		<stop  offset="0.6159" style="stop-color:#FDC60B"/>
		<stop  offset="0.698" style="stop-color:#FBBC1C"/>
		<stop  offset="0.9462" style="stop-color:#F28F3F"/>
	</radialGradient>
	<path fill="url(#SVGID_1_)" d="M504.748,352.973c0,96-69.907,173.823-156.141,173.823c-86.235,0-208.426-77.823-208.426-173.823
		c0-96,122.191-173.823,208.426-173.823C434.841,179.149,504.748,256.972,504.748,352.973z"/>
	<g>
		<path fill="#231F20" d="M502.289,353.426c-0.176,46.902-17.235,93.067-49.963,127.01c-30.898,32.044-74.149,48.603-118.5,44.269
			c-42.844-4.187-84.512-23.42-118.697-49.015c-33.887-25.372-63.298-61.114-70.826-103.751
			c-7.518-42.578,11.575-83.348,39.776-114.269c29.901-32.784,70.398-56.672,112.78-69.269c19.803-5.886,40.614-9.033,61.279-7.59
			c21.996,1.536,43.275,8.707,62.198,19.905c39.047,23.109,65.666,63.394,76.487,106.956
			C500.538,322.623,502.231,338.035,502.289,353.426c0.006,1.558,4.925,0.917,4.918-0.906
			c-0.173-45.924-16.403-91.181-47.642-125.146c-28.694-31.199-69.146-49.665-111.626-49.501
			c-40.737,0.157-81.325,15.717-115.739,36.616c-35.928,21.817-68.611,53.074-84.999,92.392
			c-16.041,38.487-10.121,80.026,11.437,115.042c22.705,36.88,59.342,64.769,97.974,83.289
			c36.383,17.442,78.046,27.723,118.308,20.373c41.914-7.65,78.2-34.215,101.644-69.293c20.432-30.571,30.506-67.148,30.644-103.771
			C507.213,350.97,502.296,351.599,502.289,353.426z"/>
	</g>
</g>
<path opacity="0.6" fill="#745522" d="M436.688,257.166c-0.915-0.419,34.125-7.403,36.807,11.178
	c2.68,18.581-4.563,22.301-14.89,16.353c-10.326-5.947-1.523-11.343-4.41-16.348C451.307,263.344,445.938,261.407,436.688,257.166z"
	/>
<path opacity="0.6" fill="#745522" d="M405.51,254.567c0,0,26.287,9.819,13.133,15.758s-14.215-0.317-16.014-0.981
	c-1.8-0.665,1.799,0.665,1.799,0.665s0.995,2.106-1.751-7.773S405.51,254.567,405.51,254.567z"/>
<path opacity="0.6" fill="#745522" d="M417.614,214.114c0,0,28.976,3.023,16.529,14.259c-12.445,11.236-14.914,4.461-17.824,3.919
	c-2.911-0.543,0.892-5.535,2.6-7.035c1.707-1.501-2.172-8.798-2.172-8.798L417.614,214.114z"/>
<path opacity="0.6" fill="#745522" d="M392.733,208.119c0,0,4.245,4.233,0.586,9.278c-3.657,5.045-6.221,9.098-8.554,3.87
	c-2.333-5.227-2.445-16.463,1.011-15.719S392.733,208.119,392.733,208.119z"/>
<path opacity="0.6" fill="#745522" d="M417.433,203.631c0,0,4.245,4.233,0.586,9.278c-3.657,5.045-6.221,9.098-8.554,3.87
	c-2.333-5.227-2.445-16.463,1.011-15.719S417.433,203.631,417.433,203.631z"/>
<path opacity="0.6" fill="#745522" d="M376.955,192.509c0,0,4.245,4.233,0.586,9.278c-3.657,5.045-6.221,9.098-8.554,3.87
	c-2.333-5.227-2.445-16.463,1.011-15.719S376.955,192.509,376.955,192.509z"/>
<path opacity="0.6" fill="#745522" d="M368.12,183.411c0,0,4.245,4.233,0.586,9.278c-3.657,5.045-6.221,9.098-8.554,3.87
	c-2.333-5.227-2.445-16.463,1.011-15.719S368.12,183.411,368.12,183.411z"/>
<path opacity="0.6" fill="#745522" d="M396.618,238.239c0,0-12.276,1.194-11.089,8.945c1.188,7.751,0.719,7.578,4.991,7.558
	c4.271-0.021,7.535-3.199,7.661-7.09C398.309,243.761,396.618,238.239,396.618,238.239z"/>
<path opacity="0.6" fill="#745522" d="M419.706,241.217c-0.108-0.251,5.63,10.978-2.021,8.928
	c-7.651-2.051-10.437-7.978-10.437-7.978s-3.252-8.031-0.561-8.103c2.692-0.071,7.136,4.979,7.136,4.979L419.706,241.217z"/>
<path opacity="0.6" fill="#745522" d="M449.62,234.092c0,0,0.912,17.534-6.011,12.163c-6.925-5.372-6.897-13.136-6.897-13.136
	S450.381,224.395,449.62,234.092z"/>
<path opacity="0.6" fill="#745522" d="M438.347,264.603c0,0,7.228,9.022,2.876,11.875s-13.102,3.875-13.102,3.875
	s-4.033-8.41,1.118-12.903C434.393,262.957,438.578,259.01,438.347,264.603z"/>
<path opacity="0.6" fill="#745522" d="M410.291,215.933c0,0,3.324,10.217-0.837,8.852c-4.162-1.364-8.96-5.047-8.96-5.047
	S409.114,210.697,410.291,215.933z"/>
<path opacity="0.6" fill="#745522" d="M383.205,229.638c0,0,3.324,10.217-0.837,8.852c-4.162-1.364-8.96-5.047-8.96-5.047
	S382.028,224.402,383.205,229.638z"/>
<path opacity="0.6" fill="#745522" d="M281.463,198.503c0,0,3.324,10.217-0.837,8.852c-4.162-1.364-8.96-5.047-8.96-5.047
	S280.286,193.268,281.463,198.503z"/>
<path opacity="0.6" fill="#745522" d="M316.521,232.892c0,0,3.324,10.217-0.837,8.852c-4.162-1.364-8.96-5.047-8.96-5.047
	S315.344,227.656,316.521,232.892z"/>
<path opacity="0.6" fill="#745522" d="M406.603,195.097c0,0,3.324,10.217-0.837,8.852c-4.162-1.364-8.96-5.047-8.96-5.047
	S405.426,189.861,406.603,195.097z"/>
<path opacity="0.6" fill="#745522" d="M430.335,242.595l-2.634,7.13c0,0,4.746,11.101,10.327,3.815
	C443.609,246.255,430.335,242.595,430.335,242.595z"/>
<path opacity="0.6" fill="#745522" d="M319.631,223.474c1.001,0.111-30.076,17.741-38.455,0.94c-8.376-16.8-2.667-22.606,9.004-20.2
	c11.67,2.405,5.006,10.292,9.319,14.138C303.813,222.197,309.518,222.351,319.631,223.474z"/>
<path opacity="0.6" fill="#745522" d="M351.255,258.363c0,0-28.461,6.225-20.17-8.35c8.289-14.575,12.76-8.917,15.693-9.316
	c2.935-0.398,0.891,5.535-0.26,7.496c-1.149,1.961,4.823,7.672,4.823,7.672L351.255,258.363z"/>
<path opacity="0.6" fill="#745522" d="M187.614,349.731c0,0-28.461,6.225-20.17-8.35c8.289-14.575,12.76-8.917,15.693-9.316
	c2.935-0.398,0.891,5.535-0.26,7.496c-1.149,1.961,4.823,7.672,4.823,7.672L187.614,349.731z"/>
<path opacity="0.6" fill="#745522" d="M198.499,326.475c0,0-28.461,6.225-20.17-8.35c8.289-14.575,12.76-8.917,15.693-9.316
	c2.935-0.398,0.891,5.535-0.26,7.496c-1.149,1.961,4.823,7.672,4.823,7.672L198.499,326.475z"/>
<path opacity="0.6" fill="#745522" d="M376.76,256.245c0,0-5.359-2.687-3.469-8.625c1.889-5.938,3.051-10.59,6.907-6.359
	c3.855,4.23,7.489,14.863,3.974,15.242C380.657,256.881,376.76,256.245,376.76,256.245z"/>
<path opacity="0.6" fill="#745522" d="M363.617,228.867c0,0,11.281-4.987,7.721-11.974c-3.562-6.986-3.062-6.969-7.111-5.609
	c-4.049,1.36-6.15,5.402-5.049,9.137C360.279,224.155,363.617,228.867,363.617,228.867z"/>
<path opacity="0.6" fill="#745522" d="M340.762,233.287c0.182,0.205-8.792-8.656-0.884-9.111c7.908-0.454,12.413,4.299,12.413,4.299
	s5.608,6.604,3.075,7.517c-2.534,0.913-8.338-2.488-8.338-2.488L340.762,233.287z"/>
<path opacity="0.6" fill="#745522" d="M145.297,349.514c0,0-6.37-16.361,1.889-13.435c8.262,2.927,10.672,10.307,10.672,10.307
	S147.619,358.96,145.297,349.514z"/>
<path opacity="0.6" fill="#745522" d="M305.068,259.579c0,0-6.37-16.361,1.889-13.435c8.262,2.927,10.672,10.307,10.672,10.307
	S307.39,269.024,305.068,259.579z"/>
<path opacity="0.6" fill="#745522" d="M257.001,289.519c0,0-6.37-16.361,1.889-13.435c8.261,2.927,10.671,10.307,10.671,10.307
	S259.323,298.964,257.001,289.519z"/>
<path opacity="0.6" fill="#745522" d="M281.657,277.085c0,0-6.37-16.361,1.889-13.435c8.261,2.927,10.671,10.307,10.671,10.307
	S283.978,286.531,281.657,277.085z"/>
<path opacity="0.6" fill="#745522" d="M162.432,306.583c0,0-6.37-16.361,1.889-13.435c8.262,2.927,10.672,10.307,10.672,10.307
	S164.753,316.028,162.432,306.583z"/>
<path opacity="0.6" fill="#745522" d="M315.723,216.934c0,0-9.694-6.298-6.458-10.373s11.223-7.792,11.223-7.792
	s6.47,6.719,2.988,12.602C319.993,217.255,317.258,222.317,315.723,216.934z"/>
<path opacity="0.6" fill="#745522" d="M301.395,206.709c0,0-9.694-6.298-6.458-10.373s11.223-7.792,11.223-7.792
	s6.47,6.719,2.988,12.602C305.665,207.031,302.93,212.092,301.395,206.709z"/>
<path opacity="0.6" fill="#745522" d="M357.637,254.338c0,0-6.363-8.657-1.983-8.667c4.38-0.011,10.091,1.98,10.091,1.98
	S360.397,258.939,357.637,254.338z"/>
<path opacity="0.6" fill="#745522" d="M330.237,235.315l0.263-7.597c0,0-7.991-9.05-11.003-0.381
	C316.484,236.006,330.237,235.315,330.237,235.315z"/>
<path opacity="0.6" fill="#745522" d="M333.412,194.406l0.263-7.597c0,0-7.991-9.05-11.003-0.381
	C319.659,195.097,333.412,194.406,333.412,194.406z"/>
<path opacity="0.6" fill="#745522" d="M216.817,262.948c0.802-0.608-9.613,33.569-27.254,27.146
	c-17.639-6.426-17.492-14.567-7.368-20.853c10.123-6.286,10.715,4.022,16.491,3.845
	C204.461,272.907,208.707,269.093,216.817,262.948z"/>
<path opacity="0.6" fill="#745522" d="M233.851,236.704c0,0-21.083,18.52-20.095,4.12c0.987-14.399,7.001-12.375,8.437-13.646
	c1.438-1.271-1.436,1.271-1.436,1.271s-2.327-0.119,7.677,2.133C238.438,232.834,233.851,236.704,233.851,236.704z"/>
<path opacity="0.6" fill="#745522" d="M263.771,266.499c0,0-16.366,24.102-20.38,7.822c-4.016-16.279,3.121-15.251,4.975-17.559
	c1.855-2.308,4.456,3.403,4.97,5.617c0.516,2.214,8.779,2.248,8.779,2.248L263.771,266.499z"/>
<path opacity="0.6" fill="#745522" d="M249.078,309.837c0,0-16.366,24.102-20.38,7.822c-4.016-16.279,3.121-15.251,4.975-17.559
	c1.855-2.308,4.456,3.403,4.97,5.617c0.516,2.214,8.779,2.248,8.779,2.248L249.078,309.837z"/>
<path opacity="0.6" fill="#745522" d="M172.496,316.881c0,0-16.366,24.102-20.38,7.822c-4.016-16.279,3.121-15.251,4.975-17.559
	c1.855-2.308,4.456,3.403,4.97,5.617c0.516,2.214,8.779,2.248,8.779,2.248L172.496,316.881z"/>
<path opacity="0.6" fill="#745522" d="M280.819,247.411c0,0-5.738,1.739-8.452-3.871c-2.716-5.608-5.075-9.783,0.635-9.368
	c5.708,0.417,15.662,5.63,13.372,8.324C284.084,245.19,280.819,247.411,280.819,247.411z"/>
<path opacity="0.6" fill="#745522" d="M252.443,236.591c0,0,4.753-11.382-2.638-14.001c-7.392-2.618-7.018-2.95-9.02,0.824
	c-2.001,3.773-0.745,8.152,2.625,10.104C246.778,235.469,252.443,236.591,252.443,236.591z"/>
<path opacity="0.6" fill="#745522" d="M238.901,255.526c0.273,0.023-12.335-0.23-6.911-6.002c5.426-5.771,11.965-5.423,11.965-5.423
	s8.614,0.932,7.404,3.337c-1.21,2.406-7.762,3.933-7.762,3.933L238.901,255.526z"/>
<path opacity="0.6" fill="#745522" d="M259.956,220.617c0.273,0.023-12.335-0.23-6.911-6.002c5.426-5.771,11.965-5.423,11.965-5.423
	s8.614,0.932,7.404,3.337c-1.21,2.406-7.762,3.933-7.762,3.933L259.956,220.617z"/>
<path opacity="0.6" fill="#745522" d="M231.034,285.253c0,0-15.881-7.487-7.875-11.048c8.009-3.562,14.836,0.134,14.836,0.134
	S239.218,290.509,231.034,285.253z"/>
<path opacity="0.6" fill="#745522" d="M209.481,260.893c0,0-11.368,2.102-11.824-3.082c-0.456-5.184,2.781-13.376,2.781-13.376
	s9.318,0.423,10.841,7.087C212.801,258.187,214.299,263.742,209.481,260.893z"/>
<path opacity="0.6" fill="#745522" d="M265.632,259.187c0,0-10.574-1.902-7.404-4.924c3.17-3.022,8.684-5.508,8.684-5.508
	S270.802,260.625,265.632,259.187z"/>
<path opacity="0.6" fill="#745522" d="M232.661,264.24l-5.037-5.693c0,0-12.026-1.067-8.245,7.296
	C223.158,274.206,232.661,264.24,232.661,264.24z"/>
<path fill="none" d="M437.03,272.69c-31.11-23.21-38.19-27.88-46.63-31.83c3.5-1.33,7.239-2.05,11.119-2.05
	C418.99,238.81,433.57,253.34,437.03,272.69z"/>
<g>
	<path fill="#FFFFFF" d="M371.94,389.631c0.228-15.898,22.193-27.94,17.959-25.41c0,0,2.7,29.407,17.315,32.235"/>
	<path fill="#231F20" d="M371.94,389.631c-0.173-1.396-0.149-2.845,0.055-4.267c0.184-1.431,0.575-2.834,1.059-4.201
		c0.473-1.376,1.125-2.679,1.82-3.954c0.698-1.275,1.494-2.492,2.364-3.65c1.723-2.331,3.683-4.471,5.813-6.416
		c1.068-0.967,2.161-1.909,3.308-2.789c0.573-0.441,1.154-0.872,1.75-1.293l0.917-0.627l0.253-0.161l0.074-0.046l0.175-0.098
		l0.129-0.062c-2.245-2.296,3.75,2.722,1.989,3.388l-0.058,0.043l-0.094,0.064l-0.084,0.055l-0.494,0.306l0.957-1.883
		c0.077,0.728,0.186,1.531,0.299,2.3l0.367,2.332c0.265,1.552,0.567,3.099,0.896,4.638c0.342,1.535,0.701,3.065,1.122,4.575
		c0.412,1.513,0.881,3.004,1.394,4.478c0.512,1.473,1.091,2.919,1.772,4.308c0.663,1.399,1.41,2.754,2.3,4.011
		c0.887,1.254,1.887,2.441,3.086,3.428c1.187,1.001,2.569,1.798,4.106,2.348c-1.633-0.071-3.271-0.565-4.771-1.35
		c-0.752-0.391-1.452-0.875-2.126-1.392c-0.668-0.523-1.317-1.08-1.9-1.697c-1.166-1.231-2.217-2.571-3.121-3.991
		c-0.897-1.425-1.682-2.91-2.394-4.422c-0.706-1.515-1.307-3.07-1.847-4.64c-0.53-1.573-1.007-3.161-1.404-4.767
		c-0.409-1.603-0.75-3.219-1.038-4.845c-0.146-0.813-0.282-1.628-0.393-2.448c-0.112-0.829-0.213-1.625-0.296-2.503l-0.117-1.235
		l1.074-0.647l0.399-0.241l0.026-0.016l-0.039,0.027l-0.044,0.034c-1.76,0.663,4.246,5.671,1.992,3.381l0.101-0.046
		c0.094-0.049,0.076-0.042,0.07-0.038l-0.01,0.005l-0.037,0.022l-0.191,0.117l-0.829,0.531c-0.557,0.368-1.11,0.752-1.657,1.147
		c-1.092,0.792-2.177,1.604-3.22,2.465c-2.094,1.714-4.104,3.534-5.934,5.519c-0.901,1.003-1.773,2.033-2.593,3.104
		c-0.817,1.074-1.541,2.212-2.222,3.38c-0.683,1.171-1.233,2.413-1.718,3.694C372.509,386.895,372.167,388.233,371.94,389.631z"/>
</g>
<path fill="#231F20" stroke="#231F20" stroke-miterlimit="10" d="M413.715,311.433"/>
<g>
	<path fill="#231F20" d="M504.325,317.925"/>
</g>
<g>
	<polyline fill="#DCC224" points="416.212,307.673 531.179,278.513 414.453,290.429 	"/>
	<path fill="#231F20" d="M416.175,307.527l57.336-15.164l57.371-15.02l0.419,2.369l-29.152,3.259l-7.291,0.787l-7.293,0.771
		l-14.597,1.43c-9.738,0.886-19.477,1.771-29.228,2.527l-14.627,1.131c-4.882,0.318-9.758,0.691-14.645,0.96l-0.031-0.299
		c4.841-0.724,9.691-1.344,14.537-2.019l14.554-1.848c9.703-1.229,19.42-2.331,29.136-3.431l14.584-1.549l7.299-0.718l7.299-0.703
		l29.21-2.699l0.42,2.369l-57.596,14.14l-57.631,13.996L416.175,307.527z"/>
</g>
<g opacity="0.8">
	<path fill="#F6921E" d="M302.226,434.599c-24.989,29.438-16.296,74.169-16.296,74.169C180.599,575.736,173.335,446,173.335,446
		c32.541,6.129,58.386-37.132,58.386-37.132"/>
	<g>
		<path fill="#231F20" d="M302.226,432.099c-12.415,14.983-17.25,34.123-17.739,53.262c-0.22,8.587-0.177,17.44,1.443,25.907
			c0-1.667,0-3.333,0-5c-24.985,15.758-59.666,29.775-84.938,7.019c-15.623-14.069-22.532-36.354-25.995-56.456
			c-0.752-4.37-1.401-8.809-1.654-13.241c-0.002,1.638-0.004,3.274-0.007,4.911c24.623,4.196,46.688-17.662,58.386-37.132
			c0.746-1.24-0.726-3.793,0-5c-11.699,19.47-33.763,41.328-58.386,37.132c0.099,0.017-0.034,4.433-0.007,4.911
			c1.952,34.186,18.299,81.437,58.956,82.054c19.238,0.292,37.812-9.211,53.645-19.197c0.398-0.251,0.114-4.401,0-5
			c-4.497-23.503,0.918-50.608,16.296-69.169C303.06,436.093,301.423,433.067,302.226,432.099L302.226,432.099z"/>
	</g>
</g>
<g>
	<g>
		<path fill="#231F20" d="M302.226,432.099c-12.415,14.983-17.25,34.123-17.739,53.262c-0.22,8.587-0.177,17.44,1.443,25.907
			c0-1.667,0-3.333,0-5c-24.985,15.758-59.666,29.776-84.938,7.019c-15.623-14.068-22.532-36.354-25.995-56.456
			c-0.752-4.37-1.401-8.809-1.654-13.241c-0.002,1.638-0.004,3.274-0.007,4.911c24.623,4.196,46.688-17.662,58.386-37.132
			c0.746-1.24-0.726-3.793,0-5c-11.699,19.47-33.763,41.328-58.386,37.132c0.099,0.017-0.034,4.433-0.007,4.911
			c1.952,34.186,18.299,81.437,58.956,82.054c19.238,0.292,37.812-9.211,53.645-19.197c0.398-0.251,0.114-4.401,0-5
			c-4.497-23.503,0.918-50.608,16.296-69.169C303.06,436.093,301.423,433.067,302.226,432.099L302.226,432.099z"/>
	</g>
</g>
<path fill="#FCC611" d="M231.182,404.911c0,0,13.378,79.522,71.044,26.189"/>
<path fill="#DCC224" stroke="#231F20" stroke-miterlimit="10" d="M148.431,363.884"/>
<path fill="#DCC224" stroke="#231F20" stroke-miterlimit="10" d="M463.01,453"/>
<g>
	<path fill="#FCC611" d="M320.097,386.808c0,0,240.988,10.518,194.727,45.364l-62.29,40.321"/>
	<path fill="#231F20" d="M320.097,386.808c4.563,0.101,9.128,0.212,13.688,0.4l13.683,0.581c4.56,0.222,9.122,0.417,13.678,0.709
		l13.667,0.887c9.11,0.627,18.217,1.328,27.317,2.118c9.098,0.822,18.186,1.766,27.264,2.817c9.077,1.064,18.138,2.296,27.177,3.704
		c4.519,0.712,9.034,1.452,13.533,2.307c4.5,0.847,8.989,1.759,13.461,2.782c4.472,1.021,8.925,2.148,13.339,3.46
		c4.412,1.317,8.783,2.834,13.026,4.778c2.114,0.99,4.202,2.082,6.171,3.453c1.947,1.365,3.883,3.012,5.1,5.406
		c0.603,1.187,0.895,2.619,0.757,3.996c-0.125,1.383-0.653,2.652-1.327,3.73c-1.375,2.161-3.222,3.746-5.105,5.164l-0.037,0.028
		l-0.03,0.02l-31.374,19.808l-15.758,9.793c-5.246,3.275-10.511,6.521-15.791,9.743c5.102-3.498,10.218-6.973,15.354-10.417
		l15.387-10.368l30.916-20.513l-0.067,0.047c1.723-1.349,3.346-2.858,4.384-4.592c1.044-1.736,1.263-3.611,0.372-5.299
		c-0.873-1.695-2.505-3.152-4.291-4.353c-1.791-1.219-3.773-2.232-5.799-3.151c-4.074-1.821-8.372-3.231-12.704-4.511
		c-4.339-1.271-8.74-2.369-13.17-3.362c-8.86-1.983-17.825-3.565-26.809-5.025c-8.988-1.448-18.018-2.669-27.057-3.822
		c-9.039-1.16-18.098-2.18-27.165-3.141c-9.063-0.991-18.14-1.895-27.223-2.725l-27.268-2.352l-13.646-1.082L320.097,386.808z"/>
</g>
<path fill="#C4802A" d="M372.173,391.029c0,0-10.758,15.614,3.551,26.023c0,0,5.54,3.915,13.854,0
	C389.578,417.053,376.069,416.964,372.173,391.029z"/>
<path fill="#FFFFFF" d="M420.41,404.911c0,0,80.5,2.089,88.045,18.089c0,0-12.67,1.178-31.563,17.589
	C476.893,440.589,524.82,406.822,420.41,404.911z"/>
<path fill="#F37A26" d="M236.865,429.391c0,0-26.838,43.313-62.396,33.556c0,0,50.066-8.837,54.308-46.146"/>
<path fill="#F37A26" d="M146.902,288.35c0,0-31.652-7.863-32.345-29.407c0,0,14.842,26.592,38.558,22.787"/>
<path fill="#F37A26" d="M143.089,304.138c0,0-52.115-17.224-64.67-32.188c0,0,56.612,31.513,70.651,26.638"/>
<path fill="#F37A26" d="M148.49,297.385c0,0-48.529-19.187-59.744-37.743c0,0,52.152,37.339,65.646,30.248"/>
<path fill="#F37A26" d="M131.705,338.072c0,0-56.059-1.019-72.285,6.265c0,0,64.117-7.808,76.827-0.908"/>
<path fill="#F37A26" d="M134.714,344.353c0,0-48.908,7.754-61.904,16.686c0,0,54.565-16.787,66.673-12.66"/>
<path fill="#F37A26" d="M139.813,358.382c0,0-48.508,7.777-61.395,16.757c0,0,54.115-16.861,66.127-12.705"/>
<path fill="#F37A26" d="M137.288,372.024c0,0-38.977,11.985-48.542,20.69c0,0,42.547-19.906,52.894-18.017"/>
<path fill="#F37A26" d="M134.599,327.997c0,0-52.488-4.113-67.869,1.064c0,0,60.257-2.835,71.989,3.699"/>
<path fill="#F37A26" d="M281.117,446.949c0,0-11.113,27.074-4.324,51.089c0,0-0.459-38.782,6.75-47.815"/>
<path fill="#F37A26" d="M253.544,447.919l-37.176,60.491c0,0,33.044-55.279,28.276-71.833"/>
<path fill="#F37A26" d="M139.55,324.124l-80.129-8.728c0,0,72.982,7.202,90.985-2.843"/>
<path fill="#F37A26" d="M243.612,442.755l-54.488,45.524c0,0,48.913-41.897,49.658-59.107"/>
<path fill="#F37A26" d="M272.471,449.509c0,0-18.252,39.312-10.362,58.901c0,0-1.061-58.872,4.65-58.887"/>
<path fill="#F37A26" d="M259.714,449.509c0,0-18.252,39.312-10.362,58.901c0,0-1.061-58.872,4.65-58.887"/>
<g>
	<polyline fill="#DCC224" points="168.032,341.181 51.683,364.212 168.876,358.494 	"/>
	<path fill="#231F20" d="M168.062,341.328l-58.058,12.107l-58.086,11.96l-0.293-2.388l29.285-1.711l7.323-0.399l7.323-0.385
		l14.652-0.654c9.771-0.369,19.543-0.737,29.321-0.976l14.667-0.355c4.892-0.059,9.781-0.174,14.675-0.184l0.015,0.3
		c-4.872,0.467-9.749,0.829-14.624,1.246l-14.631,1.074c-9.755,0.714-19.516,1.299-29.276,1.883l-14.646,0.775l-7.326,0.33
		l-7.327,0.316l-29.312,1.148l-0.293-2.388l58.263-11.071l58.292-10.924L168.062,341.328z"/>
</g>
<g>
	<polyline fill="#DCC224" points="200.193,418.793 91.965,467.314 204.896,435.477 	"/>
	<path fill="#231F20" d="M200.254,418.93l-53.868,24.811l-53.928,24.675l-0.821-2.262l28.156-8.23l7.047-2.03l7.051-2.016
		l14.133-3.922c9.44-2.549,18.88-5.098,28.356-7.521l14.214-3.634c4.754-1.154,9.493-2.361,14.261-3.468l0.081,0.289
		c-4.643,1.547-9.315,2.992-13.972,4.491l-14.019,4.326c-9.347,2.883-18.728,5.641-28.109,8.397l-14.1,4.038l-7.065,1.963
		l-7.07,1.95l-28.309,7.688l-0.82-2.262l54.299-23.847l54.36-23.711L200.254,418.93z"/>
</g>
<g>
	<path fill="#EB8923" d="M501.615,306.466c0,0,12.19-13.816,0.729-17.022c-11.462-3.206-20.288-21.042-18.678-17.026
		c7.154,17.839-21.081-43.829-21.081-43.829c-34.847-50.049-116.788,41.117-116.788,41.117"/>
	<g>
		<path fill="#231F20" d="M501.615,308.966c4.24-4.875,7.505-12.213,5.191-18.74c-0.935-2.637-4.348-3.151-6.578-4.046
			c-3.252-1.306-6.01-3.809-8.453-6.247c-2.207-2.203-4.118-4.707-5.929-7.239c-0.606-0.848-1.426-2.834-2.364-3.36
			c0.358,0.201-0.027,4.296-0.006,4.911c0.044,1.301,1.112,2.548,1.35,3.847c-0.006-1.422-0.012-2.845-0.018-4.268
			c0.025-2.639-3.162-6.782-4.289-9.141c-2.961-6.197-5.854-12.427-8.744-18.658c-4.332-9.34-7.512-19.773-15.268-26.884
			c-23.599-21.633-59.918,3.588-79.343,18.943c-11.146,8.81-21.85,18.55-31.367,29.12c-0.846,0.939,0.812,4.099,0,5
			c14.998-16.657,32.698-31.919,51.896-43.479c12.287-7.399,26.879-13.995,41.565-12.383c11.241,1.233,20.54,8.683,25.166,18.753
			c5.403,11.762,10.81,23.525,16.39,35.205c0.756,1.583,4.068,6.387,4.019,7.752c0.058-1.578,0.277-3.411-0.007-4.961
			c-0.224-1.222-1.296-2.46-1.337-3.668c-0.002,1.637-0.004,3.274-0.007,4.911c1.735,0.974,3.408,4.826,4.621,6.388
			c3.297,4.247,7.236,8.118,12.125,10.458c1.991,0.954,3.984,1.193,5.685,2.716c0.604,0.541,0.892,1.323,1.152,2.06
			c0.151-2.072,0.086-2.394-0.196-0.967c-0.164,0.568-0.361,1.124-0.592,1.668c-1.028,2.651-2.801,5.169-4.662,7.309
			C500.774,304.934,502.424,308.037,501.615,308.966L501.615,308.966z"/>
	</g>
</g>
<path fill="#C17329" d="M345.798,268.572c0,0,58.159-54.897,99.85-38.373c0,0,13.739,4.039,17.814,22.139
	c6.443,28.617,18.247,43.957,35.457,46.062c0,0,11.687,40.53-1.033,26.413C491.019,317.188,428.775,342.636,345.798,268.572z"/>
<path fill="#934C21" d="M350.991,264.236c0,0,45.45-34.236,90.762-17.711c0,0,14.933,4.039,19.361,22.139
	c7.003,28.617,23.334,44.703,42.039,46.807c0,0,9.199,39.784-4.626,25.667C491.064,333.514,441.176,338.3,350.991,264.236z"/>
<path fill="#231F20" stroke="#231F20" stroke-miterlimit="10" d="M345.798,267.081c0,0,61.417-35.315,77.869-19.385
	c27.686,26.808,20.282,48.07,46.333,68.957c0,0,20,12.951,33.82,7.069c0,0,7.323,31.717,0.928,29.251
	c-5.158-1.989-8.89,12.999-21.081,2.72c0,0-17.286-21.642-81.333-13.359c0,0-44.134,0.943-49.463-29.009
	C352.871,313.324,343.929,277.747,345.798,267.081z"/>
<g>
	<path fill="#FFFFFF" d="M522.784,323.172c0.377,13.384-8.706,25.171-21.629,27.211c-14.104,2.226-19.708-10.231-35.176-22.532
		L522.784,323.172z"/>
	<g>
		<path fill="#231F20" d="M522.766,323.671c0.042,13.211-11.561,24.328-24.323,25.092c-6.021,0.36-11.09-3.196-15.386-6.971
			c-5.841-5.132-11.025-10.9-17.077-15.815c0,1.25,0,2.5,0,3.75c18.935-1.56,37.87-3.12,56.805-4.679c0.13-0.011-0.074-3.744,0-3.75
			c-18.935,1.56-37.87,3.12-56.805,4.679c0.079-0.006-0.238,3.557,0,3.75c11.235,9.125,21.343,26,37.884,21.949
			c13.406-3.284,18.979-16.467,18.939-29.001C522.794,320.036,522.763,322.521,522.766,323.671z"/>
	</g>
</g>
<g>
	
		<ellipse transform="matrix(0.9977 0.0684 -0.0684 0.9977 21.0427 -27.191)" fill="#FFFFFF" cx="407.616" cy="293.711" rx="34.382" ry="45.925"/>
	<g>
		<path fill="#231F20" d="M440.455,296.192c-1.562,19.203-13.841,44.317-36.641,42.237c-21.825-1.991-30.057-28.968-29.037-47.199
			c1.076-19.247,14.193-44.285,36.638-42.237C433.241,250.984,441.474,277.959,440.455,296.192c-0.08,1.433,2.857,0.958,2.926-0.259
			c1.061-18.986-7.087-44.617-28.616-48.554c-20.558-3.76-35.611,14.083-40.853,32.014c-5.895,20.167-0.628,47.691,19.377,58.176
			c17.943,9.405,36.333-3.937,44.366-19.822c3.417-6.756,5.115-14.312,5.726-21.814C443.496,294.51,440.555,294.972,440.455,296.192
			z"/>
	</g>
</g>
<path fill="#FFFFFF" d="M442.063,478.959c0,0-50.04,48.709-125.885,35.375c-75.845-13.334-16.688-2.667-16.688-2.667
	S375.794,515.584,442.063,478.959z"/>
<path fill="#FFFFFF" d="M88.746,359.329l70.921-6.356c0,0,6.301-1.782,7.333-6.787"/>
<ellipse transform="matrix(0.6504 -0.7596 0.7596 0.6504 -147.9998 233.338)" fill="#F0EE95" fill-opacity="0.4" cx="179.487" cy="277.448" rx="14.785" ry="9.33"/>
<ellipse transform="matrix(0.7989 -0.6014 0.6014 0.7989 -135.7467 196.8529)" fill="#F0EE95" fill-opacity="0.4" cx="226.539" cy="301.448" rx="14.785" ry="9.329"/>
<ellipse transform="matrix(0.7989 -0.6014 0.6014 0.7989 -133.5177 220.8063)" fill="#F0EE95" fill-opacity="0.4" cx="263.478" cy="310.092" rx="14.785" ry="9.329"/>
<ellipse transform="matrix(0.6222 -0.7829 0.7829 0.6222 -173.8765 302.5776)" fill="#F0EE95" fill-opacity="0.4" cx="226.539" cy="331.429" rx="14.785" ry="9.329"/>
<ellipse transform="matrix(0.4478 -0.8941 0.8941 0.4478 -196.8684 324.6174)" fill="#F0EE95" fill-opacity="0.4" cx="164.378" cy="321.694" rx="14.785" ry="9.329"/>
<ellipse transform="matrix(-0.103 -0.9947 0.9947 -0.103 -210.5844 592.1626)" fill="#F0EE95" fill-opacity="0.4" cx="161.703" cy="391.03" rx="14.785" ry="9.33"/>
<ellipse transform="matrix(-0.4172 -0.9088 0.9088 -0.4172 -53.4934 747.7552)" fill="#F0EE95" fill-opacity="0.4" cx="213.007" cy="391.029" rx="14.785" ry="9.33"/>
<ellipse transform="matrix(-0.1403 -0.9901 0.9901 -0.1403 -123.5643 616.0129)" fill="#F0EE95" fill-opacity="0.4" cx="205.667" cy="361.653" rx="14.785" ry="9.33"/>
<ellipse transform="matrix(-0.7087 -0.7055 0.7055 -0.7087 550.8405 631.7758)" fill="#F0EE95" fill-opacity="0.4" cx="405.84" cy="202.176" rx="14.785" ry="6.812"/>
<ellipse transform="matrix(-0.2434 -0.9699 0.9699 -0.2434 -63.8072 743.1412)" fill="#F0EE95" fill-opacity="0.4" cx="257.935" cy="396.457" rx="14.785" ry="11.077"/>
<ellipse transform="matrix(0.8279 -0.5608 0.5608 0.8279 -104.4171 224.7493)" fill="#F0EE95" fill-opacity="0.4" cx="314.06" cy="282.541" rx="16.062" ry="7.18"/>
<ellipse transform="matrix(0.8279 -0.5608 0.5608 0.8279 -100.5457 197.4591)" fill="#F0EE95" fill-opacity="0.4" cx="271.516" cy="262.583" rx="14.785" ry="7.045"/>
<ellipse transform="matrix(0.8279 -0.5608 0.5608 0.8279 -97.847 177.5047)" fill="#F0EE95" fill-opacity="0.4" cx="240.346" cy="248.208" rx="14.785" ry="7.045"/>
<ellipse transform="matrix(0.8843 -0.467 0.467 0.8843 -69.6417 183.8564)" fill="#F0EE95" fill-opacity="0.4" cx="336.118" cy="232.434" rx="14.785" ry="9.329"/>
<ellipse transform="matrix(0.9993 -0.0376 0.0376 0.9993 -7.5367 12.2508)" fill="#F0EE95" fill-opacity="0.4" cx="321.804" cy="206.417" rx="14.785" ry="9.329"/>
<ellipse transform="matrix(0.9993 -0.0376 0.0376 0.9993 -6.9246 13.1299)" fill="#F0EE95" fill-opacity="0.4" cx="345.51" cy="190.61" rx="12.891" ry="9.329"/>
<path fill="#F0EE95" fill-opacity="0.4" d="M304.933,234.027c0.831,5.084-5.03,10.274-13.087,11.592
	c-8.057,1.317-15.264-1.737-16.096-6.822c-0.831-5.085,5.028-10.276,13.084-11.593C296.895,225.887,304.103,228.941,304.933,234.027
	z"/>
<path fill="#F0EE95" fill-opacity="0.4" d="M278.069,217.329c0.831,5.084-5.03,10.274-13.087,11.592
	c-8.057,1.317-15.264-1.737-16.096-6.822c-0.831-5.085,5.028-10.276,13.084-11.593C270.031,209.189,277.238,212.243,278.069,217.329
	z"/>
<ellipse transform="matrix(0.8917 0.4526 -0.4526 0.8917 135.1593 -144.5353)" fill="#F0EE95" fill-opacity="0.4" cx="369.667" cy="210.223" rx="14.785" ry="9.329"/>
<g>
	<polyline fill="#DCC224" points="272.471,306.533 189.892,221.396 258.399,316.653 	"/>
	<path fill="#231F20" d="M272.363,306.637l-41.722-42.149l-41.615-42.252l1.845-1.544l17.355,23.65l4.316,5.929l4.304,5.938
		l8.514,11.942c5.621,8.001,11.242,16.003,16.758,24.08l8.271,12.117c2.709,4.074,5.463,8.115,8.131,12.218l-0.243,0.175
		c-3.041-3.835-5.996-7.732-8.995-11.597l-8.856-11.697c-5.902-7.799-11.699-15.674-17.496-23.549l-8.612-11.872l-4.26-5.969
		l-4.248-5.978L188.913,222.1l1.845-1.544l40.964,42.885l40.857,42.988L272.363,306.637z"/>
</g>
<polygon fill="#FFFFFF" points="261.083,314.797 216.368,252.411 263.477,311.511 "/>
<g>
	<polyline fill="#DCC224" points="378.21,214.903 425.387,106.083 363.485,205.758 	"/>
	<path fill="#231F20" d="M378.072,214.843l23.036-54.65l23.172-54.59l2.131,1.116l-15.236,25.068l-3.833,6.251l-3.846,6.244
		l-7.789,12.428c-5.25,8.25-10.501,16.499-15.861,24.679l-8.044,12.27c-2.731,4.059-5.415,8.146-8.188,12.179l-0.256-0.158
		c2.385-4.274,4.859-8.492,7.286-12.74l7.432-12.649c4.957-8.432,10.022-16.795,15.09-25.159l7.687-12.491l3.892-6.215l3.904-6.208
		l15.715-24.771l2.131,1.116l-24.005,54.229l-24.141,54.17L378.072,214.843z"/>
</g>
<polyline fill="#FFFFFF" points="411,134.333 372.449,209.725 368.11,207.173 "/>
<g>
	<polyline fill="#DCC224" points="260.686,386.71 157.929,445.944 267.054,402.832 	"/>
	<path fill="#231F20" d="M260.76,386.84l-51.077,30.139l-51.152,30.01l-1.045-2.167l27.178-11.04l6.805-2.733l6.811-2.72
		l13.663-5.333c9.133-3.492,18.267-6.983,27.448-10.354l13.773-5.055c4.613-1.63,9.205-3.311,13.836-4.895l0.11,0.279
		c-4.463,2.009-8.964,3.921-13.445,5.884l-13.508,5.724c-9.006,3.814-18.06,7.508-27.114,11.201l-13.619,5.445l-6.831,2.669
		l-6.835,2.655l-27.385,10.517l-1.045-2.167l51.605-29.224l51.679-29.095L260.76,386.84z"/>
</g>
<path fill="#FFFFFF" d="M183.774,434.159l71.94-30.605c0,0,6.279-4.442,4.493-7.097c-1.786-2.654,1.95,7.124,1.95,7.124
	L183.774,434.159z"/>
<g>
	<polyline fill="#DCC224" points="231.771,324.994 127.2,269.024 221.446,338.917 	"/>
	<path fill="#231F20" d="M231.7,325.126l-52.57-27.454l-52.499-27.585l1.288-2.032l23.729,17.247l5.915,4.334l5.907,4.347
		l11.745,8.785c7.79,5.911,15.579,11.822,23.291,17.838l11.566,9.026c3.82,3.056,7.673,6.068,11.464,9.164l-0.179,0.241
		c-4.063-2.729-8.064-5.541-12.098-8.31l-11.995-8.447c-7.996-5.633-15.914-11.371-23.832-17.108l-11.817-8.688l-5.874-4.391
		l-5.865-4.402l-23.394-17.699l1.288-2.032l52.071,28.385l52.001,28.516L231.7,325.126z"/>
</g>
<path fill="#FFFFFF" d="M157.478,288.53l60.309,41.073c0,0,3.519,4.61,8.751,0"/>
<g>
	<polyline fill="#DCC224" points="275.468,336.908 188.074,340.219 272.678,354.016 	"/>
	<path fill="#231F20" d="M275.474,337.058l-43.674,2.26l-43.68,2.112l0.149-2.406l21.196,3.174l5.294,0.821
		c1.763,0.281,3.532,0.53,5.292,0.839l10.565,1.786l10.547,1.899c3.511,0.663,7.027,1.291,10.531,1.999l10.518,2.079
		c3.497,0.75,7.002,1.447,10.49,2.247l-0.048,0.296c-3.562-0.35-7.107-0.803-10.661-1.202l-10.633-1.37
		c-3.547-0.442-7.081-0.963-10.62-1.451l-10.604-1.55l-10.585-1.664c-1.766-0.266-3.522-0.592-5.284-0.886l-5.281-0.903
		l-21.106-3.724l-11.782-2.079l11.931-0.327l43.714-1.199l43.72-1.051L275.474,337.058z"/>
</g>
<path fill="#FFFFFF" d="M216.368,341.728l56.43,8.916v-8.916c0,0,0.311,4.196-5.743,3.734"/>
<g>
	<polyline fill="#DCC224" points="210.13,352.696 93.78,375.728 210.974,370.009 	"/>
	<path fill="#231F20" d="M210.159,352.843l-58.058,12.107l-58.086,11.96l-0.293-2.388l29.285-1.711l7.323-0.399l7.323-0.385
		l14.652-0.654c9.771-0.369,19.543-0.737,29.321-0.976l14.667-0.355c4.892-0.059,9.781-0.174,14.675-0.184l0.015,0.3
		c-4.872,0.467-9.749,0.829-14.624,1.246l-14.631,1.074c-9.755,0.714-19.516,1.299-29.276,1.883l-14.646,0.775l-7.326,0.33
		l-7.327,0.316l-29.312,1.148l-0.293-2.388l58.263-11.071l58.292-10.924L210.159,352.843z"/>
</g>
<path fill="#FFFFFF" d="M136.794,371.868l64.873-4.712c0,0,5.851-0.538,5.333-5.502"/>
<g>
	<polyline fill="#DCC224" points="213.083,380.65 104.856,429.172 217.787,397.334 	"/>
	<path fill="#231F20" d="M213.145,380.787l-53.868,24.811l-53.928,24.675l-0.821-2.262l28.156-8.23l7.047-2.03l7.051-2.016
		l14.133-3.922c9.44-2.549,18.88-5.098,28.356-7.521l14.214-3.634c4.754-1.154,9.493-2.361,14.261-3.468l0.081,0.289
		c-4.643,1.547-9.315,2.992-13.972,4.491l-14.019,4.326c-9.347,2.883-18.728,5.641-28.109,8.397l-14.1,4.038l-7.065,1.963
		l-7.07,1.95l-28.309,7.688l-0.82-2.262l54.299-23.847l54.36-23.711L213.145,380.787z"/>
</g>
<path fill="#FFFFFF" d="M140.949,416.124l66.822-17.019c0,0,4.003-1.593,4.582-6.125"/>
<g>
	<polyline fill="#DCC224" points="234.956,295.36 152.377,210.223 220.884,305.48 	"/>
	<path fill="#231F20" d="M234.849,295.464l-41.722-42.149l-41.615-42.252l1.845-1.544l17.355,23.65l4.316,5.929l4.304,5.938
		l8.514,11.942c5.621,8.001,11.242,16.003,16.758,24.08l8.271,12.117c2.709,4.074,5.463,8.115,8.131,12.218l-0.243,0.175
		c-3.041-3.835-5.996-7.732-8.995-11.597l-8.856-11.697c-5.902-7.799-11.699-15.674-17.496-23.549l-8.612-11.872l-4.26-5.969
		l-4.248-5.978l-16.898-23.979l1.845-1.544l40.964,42.885l40.857,42.988L234.849,295.464z"/>
</g>
<path fill="#FFFFFF" d="M222.808,305.255l-53.932-73.679l59.662,69.395C228.538,300.97,222.928,301.003,222.808,305.255z"/>
<g>
	<polyline fill="#DCC224" points="187.701,270.964 85.887,210.123 176.73,284.384 	"/>
	<path fill="#231F20" d="M187.624,271.093l-51.215-29.904l-51.14-30.031l1.382-1.969l22.889,18.347l5.704,4.609l5.695,4.62
		l11.317,9.33c7.502,6.272,15.003,12.544,22.423,18.917l11.127,9.562c3.672,3.233,7.378,6.423,11.019,9.694l-0.189,0.232
		c-3.93-2.917-7.793-5.916-11.692-8.871l-11.583-9.004c-7.721-6.004-15.36-12.108-22.999-18.213l-11.394-9.236l-5.661-4.662
		l-5.651-4.674l-22.532-18.783l1.382-1.969l50.674,30.81l50.598,30.938L187.624,271.093z"/>
</g>
<path fill="#FFFFFF" d="M113.667,231.576l67.819,46.978c0,0-5.34,3.691-2.92,5.095"/>
<g>
	<polyline fill="#DCC224" points="170.966,314.298 59.224,274.534 162.831,329.604 	"/>
	<path fill="#231F20" d="M170.916,314.439l-56.073-19.314L58.819,275.67l0.971-2.201l26.034,13.519l6.495,3.405l6.488,3.418
		l12.922,6.937c8.583,4.685,17.167,9.369,25.688,14.168l12.782,7.202c4.233,2.453,8.492,4.857,12.701,7.354l-0.141,0.265
		c-4.424-2.092-8.799-4.278-13.201-6.414l-13.12-6.566c-8.746-4.378-17.431-8.872-26.115-13.366l-12.979-6.83l-6.462-3.466
		l-6.456-3.479l-25.77-14.016l0.97-2.201l55.719,20.31l55.669,20.45L170.916,314.439z"/>
</g>
<path fill="#FFFFFF" d="M85.887,286.333l72.042,34c0,0,9.071,0.676,9.071-1.996s-5.679,8.109-5.679,8.109"/>
<g>
	<polyline fill="#DCC224" points="162.268,380.714 47.916,412.199 164.377,397.92 	"/>
	<path fill="#231F20" d="M162.308,380.859l-57.016,16.323l-57.055,16.18l-0.467-2.359l29.081-3.85l7.274-0.934l7.275-0.92
		l14.565-1.725c9.718-1.084,19.437-2.166,29.17-3.119l14.602-1.428c4.875-0.416,9.742-0.889,14.623-1.256l0.036,0.297
		c-4.825,0.822-9.662,1.539-14.493,2.313l-14.514,2.143c-9.676,1.426-19.368,2.725-29.06,4.021l-14.55,1.844l-7.282,0.865
		l-7.284,0.852l-29.149,3.291l-0.467-2.361l57.296-15.304l57.335-15.161L162.308,380.859z"/>
</g>
<path fill="#FFFFFF" d="M157.478,391.029c0,0,5.729-0.303,3.844-4.919s0.381,9.89,0.381,9.89l-80.088,8.911"/>
<g>
	<polyline fill="#DCC224" points="413.941,207.47 474.843,105.694 400.528,196.492 	"/>
	<path fill="#231F20" d="M413.813,207.393l29.934-51.197l30.062-51.121l1.969,1.383l-18.361,22.877l-4.612,5.702l-4.623,5.692
		l-9.336,11.312c-6.276,7.498-12.554,14.996-18.931,22.412l-9.567,11.122c-3.235,3.67-6.428,7.375-9.701,11.013l-0.232-0.19
		c2.919-3.928,5.92-7.79,8.878-11.687l9.011-11.578c6.009-7.717,12.117-15.353,18.227-22.987l9.243-11.388l4.665-5.657l4.678-5.648
		l18.796-22.521l1.969,1.383l-30.84,50.655l-30.968,50.579L413.813,207.393z"/>
</g>
<polygon fill="#FFFFFF" points="406.07,199 455.667,134.333 402.333,197.702 "/>
<g>
	<polyline fill="#DCC224" points="299.491,234.623 262.109,122.061 282.418,237.623 	"/>
	<path fill="#231F20" d="M299.349,234.67l-19.262-56.091l-19.122-56.138l2.333-0.589l5.354,28.842l1.311,7.215l1.296,7.218
		l2.479,14.456c1.586,9.649,3.171,19.298,4.629,28.969l2.184,14.507c0.67,4.846,1.394,9.683,2.015,14.538l-0.296,0.052
		c-1.071-4.775-2.04-9.569-3.062-14.353l-2.894-14.383c-1.927-9.589-3.726-19.2-5.525-28.812l-2.598-14.435l-1.242-7.228
		l-1.229-7.229l-4.8-28.939l2.333-0.589l18.26,56.424l18.12,56.471L299.349,234.67z"/>
</g>
<polyline fill="#FFFFFF" points="271.039,158.993 285.312,232.873 283.534,236.411 "/>
<g>
	<polyline fill="#DCC224" points="331.812,207.126 286.765,97.407 314.986,211.295 	"/>
	<path fill="#231F20" d="M331.673,207.183l-23.081-54.631l-22.943-54.688l2.287-0.748l7.329,28.404l1.804,7.108l1.791,7.112
		l3.469,14.25c2.247,9.517,4.493,19.034,6.614,28.582l3.178,14.323c1.002,4.788,2.059,9.563,3.012,14.364l-0.291,0.072
		c-1.398-4.69-2.694-9.406-4.044-14.108l-3.877-14.149c-2.583-9.433-5.04-18.898-7.497-28.363l-3.586-14.221l-1.737-7.125
		l-1.723-7.128l-6.782-28.54l2.287-0.748l22.104,55.032l21.966,55.088L331.673,207.183z"/>
</g>
<path fill="#FFFFFF" d="M298.966,130.936l21.667,74c0,0,0.902,3.333,8.451,0"/>
<g>
	<polyline fill="#DCC224" points="344.1,230.265 272.797,135.483 328.873,238.549 	"/>
	<path fill="#231F20" d="M343.979,230.355l-36.132-47.029l-36.014-47.118l2.023-1.301l14.266,25.632l3.542,6.421l3.529,6.429
		l6.956,12.912c4.578,8.64,9.156,17.281,13.62,25.984l6.693,13.055c2.179,4.38,4.406,8.733,6.542,13.137l-0.264,0.144
		c-2.537-4.185-4.982-8.42-7.477-12.629l-7.325-12.711c-4.883-8.475-9.651-17.012-14.419-25.549l-7.063-12.854l-3.48-6.455
		l-3.468-6.461l-13.771-25.901l2.023-1.302l35.289,47.664l35.17,47.753L343.979,230.355z"/>
</g>
<polygon fill="#FFFFFF" points="339.779,231.576 293.799,166.425 342.241,228.144 "/>
<g>
	<polyline fill="#DCC224" points="353.391,193.519 345.942,75.146 336.118,192.068 	"/>
	<path fill="#231F20" d="M353.241,193.528l-4.325-59.148l-4.178-59.158l2.406,0.025l-2.176,29.254l-0.572,7.311l-0.587,7.31
		l-1.288,14.61c-0.927,9.734-1.854,19.469-2.909,29.192l-1.587,14.585c-0.588,4.857-1.12,9.718-1.758,14.571l-0.299-0.025
		c0.182-4.891,0.467-9.773,0.698-14.66l0.869-14.645c0.581-9.764,1.292-19.516,2.003-29.269l1.168-14.62l0.641-7.305l0.656-7.304
		l2.736-29.207l2.406,0.025l3.271,59.215l3.123,59.224L353.241,193.528z"/>
</g>
<path fill="#FFFFFF" d="M345.541,107.673l-1.441,79.342c0,0,2.216,6.349,6.892,6.503"/>
<g>
	<polyline fill="#DCC224" points="272.797,218.854 226.538,109.641 256.02,223.209 	"/>
	<path fill="#231F20" d="M272.659,218.913l-23.684-54.372l-23.547-54.43l2.278-0.773l7.643,28.321l1.883,7.087l1.869,7.091
		l3.626,14.211c2.353,9.491,4.704,18.982,6.931,28.506l3.336,14.287c1.055,4.777,2.164,9.54,3.17,14.33l-0.29,0.075
		c-1.45-4.674-2.798-9.375-4.2-14.063l-4.034-14.105c-2.687-9.404-5.249-18.841-7.81-28.278l-3.744-14.181l-1.816-7.105
		l-1.802-7.108l-7.098-28.463l2.278-0.773l22.711,54.784l22.575,54.841L272.659,218.913z"/>
</g>
<path fill="#FFFFFF" d="M256.083,222.249l-20.676-84.826l26.751,84.412C262.158,221.834,257.002,218.604,256.083,222.249z"/>
<g>
	<polyline fill="#DCC224" points="322.464,279.463 248.16,187.016 307.51,288.231 	"/>
	<path fill="#231F20" d="M322.347,279.557l-37.621-45.846l-37.506-45.939l1.98-1.366l15.081,25.161l3.745,6.305l3.733,6.313
		l7.367,12.682c4.853,8.489,9.704,16.979,14.445,25.534l7.107,12.834c2.318,4.308,4.685,8.587,6.96,12.921l-0.258,0.151
		c-2.671-4.102-5.251-8.256-7.878-12.383l-7.729-12.47c-5.151-8.314-10.19-16.694-15.229-25.074l-7.471-12.622l-3.686-6.34
		l-3.673-6.347l-14.595-25.446l1.98-1.366l36.799,46.508l36.683,46.601L322.347,279.557z"/>
</g>
<polygon fill="#FFFFFF" points="317.512,282.099 272.797,219.713 319.906,278.813 "/>
<g>
	<polyline fill="#DCC224" points="246.956,245.63 164.377,160.493 232.884,255.75 	"/>
	<path fill="#231F20" d="M246.849,245.734l-41.722-42.149l-41.615-42.252l1.845-1.544l17.355,23.65l4.316,5.929l4.304,5.938
		l8.514,11.942c5.621,8.001,11.242,16.003,16.758,24.08l8.271,12.117c2.709,4.074,5.463,8.115,8.131,12.218l-0.243,0.175
		c-3.041-3.835-5.996-7.732-8.995-11.597l-8.856-11.697c-5.902-7.799-11.699-15.674-17.496-23.549l-8.612-11.872l-4.26-5.969
		l-4.248-5.978l-16.898-23.979l1.845-1.544l40.964,42.885l40.857,42.988L246.849,245.734z"/>
</g>
<path fill="#FFFFFF" d="M185.667,186.221l46.104,59.453c0,0,5.74,4.984,8.151,2.159s-6.256,4.579-6.256,4.579"/>
<g>
	<polyline fill="#DCC224" points="279.07,258.904 196.491,173.767 264.998,269.024 	"/>
	<path fill="#231F20" d="M278.963,259.008l-41.722-42.149l-41.615-42.252l1.845-1.544l17.355,23.65l4.316,5.929l4.304,5.938
		l8.514,11.942c5.621,8.001,11.242,16.003,16.758,24.08l8.271,12.117c2.709,4.074,5.463,8.115,8.131,12.218l-0.243,0.175
		c-3.041-3.835-5.996-7.732-8.995-11.597l-8.856-11.697c-5.902-7.799-11.699-15.674-17.496-23.549l-8.612-11.872l-4.26-5.969
		l-4.248-5.978l-16.898-23.979l1.845-1.544l40.964,42.885l40.857,42.988L278.963,259.008z"/>
</g>
<path fill="#FFFFFF" d="M219.952,200.392l44.327,59.541c0,0,3.156,4.097,4.569,2.509c1.413-1.589-4.898,2.034-4.898,2.034"/>
<g>
	<g>
		<path fill="#231F20" d="M492.218,358.055c1.467,2.979,6.752,2.544,9.32,1.713c5.057-1.637,4.367-5.826,1.474-9.339
			c-0.606-0.736-2.553-0.078-2.795,0.749c-0.653,2.236-1.938,3.899-3.234,5.784c-0.826,1.201,1.865,0.688,2.255,0.485
			c0.744-0.388,1.182-1.165,0.505-1.871c-0.673-0.703-2.502-0.104-2.794,0.749c-0.021,0.063-0.043,0.125-0.064,0.187
			c0.417-0.306,0.834-0.613,1.251-0.919c-0.986,0.254-1.737,1.094-2.667,1.333c0.367,0.396,0.735,0.792,1.103,1.188
			c1.825-1.272,3.508-2.729,5.333-4c-0.603-0.297-1.204-0.594-1.807-0.891c-1.937,1.405-3.144,3.085-4.448,5.072
			c-0.71,1.081,1.507,0.827,1.929,0.652c2.692-1.117,4.802-1.101,5.54-4.123c-0.967,0.188-1.933,0.376-2.899,0.565
			c0.283,0.805,0.896,1.259,1.632,1.655c0.082-0.385,0.165-0.77,0.247-1.155c-2.648,1.772-6.139,1.605-9.203,1.608
			c-1.099,0.001-3.084,1.666-1.119,1.675c5.369,0.023,13.133,0.117,12.675-7.226c-0.966,0.259-1.933,0.518-2.898,0.776
			c0.693,1.502,1.213,3.009,1.334,4.667c0.084,1.139,2.627,0.096,2.899-0.565c0.54-1.309,0.792-2.692,1.333-4
			c0.394-0.952-2.501-0.612-2.9,0.354c-0.541,1.309-0.793,2.692-1.333,4c0.967-0.188,1.933-0.376,2.899-0.565
			c-0.122-1.658-0.642-3.166-1.334-4.667c-0.465-1.007-2.966-0.311-2.898,0.776c0.338,5.403-4.729,4.792-8.657,4.774
			c-0.373,0.559-0.746,1.116-1.119,1.675c4.113-0.004,8.584-0.021,12.129-2.392c0.4-0.268,0.863-0.824,0.247-1.155
			c-0.46-0.248-0.849-0.483-1.034-1.011c-0.359-1.022-2.69-0.292-2.899,0.565c-0.092,0.376-0.181,0.752-0.278,1.126
			c-0.123,0.474,0.317,0.023-0.121,0.165c-1.151,0.371-2.277,0.789-3.395,1.252c0.643,0.217,1.286,0.435,1.929,0.652
			c1.045-1.591,1.979-3.12,3.552-4.261c1.596-1.157-0.882-1.535-1.807-0.891c-1.825,1.272-3.508,2.729-5.333,4
			c-1.294,0.901,0.129,1.439,1.103,1.188c1.1-0.284,3.586-1.286,3.981-2.44c-0.931,0.25-1.862,0.5-2.794,0.749
			c0.126-0.055,0.251-0.109,0.377-0.164c0.752,0.162,1.503,0.323,2.255,0.485c1.387-2.017,2.736-3.838,3.432-6.216
			c-0.932,0.25-1.863,0.499-2.795,0.749c1.433,1.738,3.95,5.697,0.471,6.823c-1.47,0.476-4.842,0.581-5.677-1.116
			C494.615,356.261,491.789,357.184,492.218,358.055L492.218,358.055z"/>
	</g>
</g>
<g>
	<g>
		<path fill="#231F20" d="M502.492,352.03c-0.344-0.949-0.695-1.167-1.053-0.655c-0.227,0.206-0.461,0.404-0.701,0.594
			c-0.724,0.592-1.495,1.125-2.265,1.654c-1.342,0.922-2.822,1.941-4.398,2.411c-0.609,0.182-1.887,1.196-0.861,1.789
			c5.273,3.05,11.461,0.138,16.075-2.852c1.649-1.069-0.754-2.024-1.91-1.275c-3.336,2.162-8.043,4.728-11.925,2.482
			c-0.287,0.596-0.574,1.192-0.861,1.789c2.792-0.833,5.357-2.671,7.655-4.408c0.936-0.706,3.908-3.033,1.26-3.587
			C502.113,349.679,500.569,351.628,502.492,352.03L502.492,352.03z"/>
	</g>
</g>
<g>
	<g>
		<path fill="#231F20" d="M506.9,351.237c-0.066,0.518-0.411,0.975-0.667,1.417c-0.384,0.66-0.63,1.305-0.683,2.068
			c0.966-0.259,1.933-0.518,2.898-0.776c0.063-1.131,0.603-2.195,0.667-3.333c-0.966,0.259-1.933,0.518-2.898,0.776
			c0.006,0.685,0.28,0.978,0.756,1.457c0.45,0.453,2.706-0.067,2.794-0.749c0.087-0.667,0.682-1.056,0.682-1.692
			c0-0.597,0-1.195,0-1.792c0-0.597-2.859-0.114-2.898,0.776c-0.038,0.883-0.526,1.833-0.854,2.638
			c-0.24,0.591-0.738,1.314-0.837,1.947c-0.147,0.952,2.545,0.056,2.868-0.474c0.143-0.232,0.251-0.492,0.372-0.736
			c0.259-0.517-1.021-0.392-1.183-0.366c-0.53,0.088-1.415,0.3-1.685,0.839c-0.122,0.244-0.23,0.503-0.373,0.736
			c0.956-0.158,1.912-0.316,2.868-0.474c0.098-0.63,0.595-1.358,0.837-1.947c0.381-0.923,0.839-1.928,0.884-2.94
			c-0.966,0.259-1.933,0.518-2.898,0.776c0,0.55,0,1.1,0,1.649c0,0.549,0.146,0.012-0.004,0.184c-0.341,0.39-0.58,0.834-0.646,1.348
			c0.931-0.25,1.862-0.499,2.794-0.749c-0.416-0.419-0.574-0.621-0.578-1.209c-0.005-0.609-2.849-0.102-2.898,0.776
			c-0.063,1.131-0.603,2.195-0.667,3.333c-0.03,0.541,2.835,0.146,2.898-0.776c0.082-1.216,1.172-2.031,1.318-3.182
			C509.875,349.924,506.996,350.485,506.9,351.237L506.9,351.237z"/>
	</g>
</g>
<g>
	<g>
		<path fill="#231F20" d="M508.986,347.643c-1.915,3.025-3.095,6.874-6.215,8.938c-1.571,1.039,0.598,1.307,1.465,1.002
			c6.08-2.137,10.055-6.494,11.546-12.769c0.268-1.129-2.241-0.422-2.607-0.044c-2.618,2.709-4.627,5.852-6.855,8.872
			c-0.814,1.104,1.842,0.698,2.243,0.443c3.585-2.275,6.247-5.469,8.452-9.062c0.729-1.188-1.822-0.692-2.243-0.443
			c-4.25,2.512-7.677,6.336-12,8.667c-1.72,0.927,0.861,1.339,1.791,0.838c4.335-2.337,7.748-6.153,12-8.667
			c-0.747-0.148-1.495-0.295-2.243-0.443c-1.98,3.228-4.314,6.219-7.548,8.271c0.747,0.148,1.495,0.295,2.243,0.443
			c2.112-2.862,3.996-5.892,6.479-8.461c-0.869-0.015-1.738-0.029-2.607-0.044c-1.301,5.476-4.42,9.345-9.788,11.231
			c0.488,0.334,0.977,0.668,1.465,1.002c3.576-2.366,4.922-6.257,7.119-9.729C512.398,346.559,509.485,346.855,508.986,347.643
			L508.986,347.643z"/>
	</g>
</g>
</svg>
